# xmcd
#
# Track frame offsets:
#	150
#	29100
#	58050
#	73572
#	111369
#	133249
#	168887
#	192287
#	213499
#	240424
#	255279
#
# Disc length: 3589 seconds
#
# Revision: 0
# Processed by: cddbd v1.5.2PL0 Copyright (c) Steve Scherf et al.
# Submitted via: audiograbber 1.83.01
#
DISCID=a00e030b
DTITLE=Div. - Mix CD 5
DYEAR=2010
DGENRE=Blues
TTITLE0=At the Jazzband Ball - Chris Barber
TTITLE1=At the Jazzband Ball - Chris Barber
TTITLE2=Down by the Riverside - Chris Barber
TTITLE3=Lady be Good - Chris Barber
TTITLE4=Sleepy Lovie - Chris Barber
TTITLE5=Snag It - Chris Barber
TTITLE6=Who`s Blues - Chris Barber
TTITLE7=Detroit Blues - Hot Mallets
TTITLE8=Summerwind - Ray Brown
TTITLE9=Stevedoors Stomp - Chris Barber
TTITLE10=Take Five - John Basile Quartett
EXTD=
EXTT0=
EXTT1=
EXTT2=
EXTT3=
EXTT4=
EXTT5=
EXTT6=
EXTT7=
EXTT8=
EXTT9=
EXTT10=
PLAYORDER=
